<svg xmlns="http://www.w3.org/2000/svg" width="489.95" height="252.45" viewBox="0 0 489.95 252.45">
  <g id="Group_44" data-name="Group 44" transform="translate(5181 -1017)">
    <g id="eye-svgrepo-com" transform="translate(-5192.025 887.25)">
      <g id="Group_43" data-name="Group 43">
        <path id="Path_50" data-name="Path 50" d="M34,256l26.2,26.2c108,108,283.7,108,391.7,0L478,256l-26.2-26.2c-108-108-283.7-108-391.7,0L34,256ZM256,382.2A295.127,295.127,0,0,1,46.7,295.6L13.8,262.7a9.6,9.6,0,0,1,0-13.5l32.9-32.9c115.4-115.4,303.2-115.4,418.6,0l32.9,32.9a9.6,9.6,0,0,1,0,13.5l-32.9,32.9A295.127,295.127,0,0,1,256,382.2Z" fill="#231f20"/>
        <path id="Path_51" data-name="Path 51" d="M256,183.5A72.5,72.5,0,1,0,328.5,256,72.552,72.552,0,0,0,256,183.5Zm0,164A91.5,91.5,0,1,1,347.5,256,91.608,91.608,0,0,1,256,347.5Z" fill="#231f20"/>
      </g>
    </g>
  </g>
</svg>
