<svg xmlns="http://www.w3.org/2000/svg" width="333.664" height="433.521" viewBox="0 0 333.664 433.521">
  <g id="Group_8" data-name="Group 8" transform="translate(1044.732 -2439.24)">
    <path id="XMLID_1151_" d="M269.568,250.041a7,7,0,0,1,0,14H209.34a7,7,0,0,1,0-14h60.228Zm38.856-24.547a7,7,0,0,0-7-7H209.34a7,7,0,0,0,0,14h92.084A7,7,0,0,0,308.424,225.494ZM157.206,65.186V34.173a7,7,0,0,1,7-7l25.4-.015a27.16,27.16,0,0,1,54.32,0v.015h25.393a7,7,0,0,1,7,7V65.186a7,7,0,0,1-7,7H164.206A7,7,0,0,1,157.206,65.186Zm14-7h91.107V41.173H236.92a7,7,0,0,1-7-7V27.158a13.16,13.16,0,0,0-26.32,0v7.015a7,7,0,0,1-7,7H171.2V58.186Zm212.387-7.181V416.656a16.883,16.883,0,0,1-16.865,16.865H66.793a16.883,16.883,0,0,1-16.864-16.865V51.005A16.883,16.883,0,0,1,66.793,34.14h67.815a7,7,0,0,1,0,14H95.517V385.8H338V48.14H298.912a7,7,0,0,1,0-14h67.815A16.884,16.884,0,0,1,383.593,51.005Zm-14,0a2.9,2.9,0,0,0-2.865-2.865H352V392.8a7,7,0,0,1-7,7H88.517a7,7,0,0,1-7-7V48.14H66.793a2.9,2.9,0,0,0-2.864,2.865V416.656a2.9,2.9,0,0,0,2.864,2.865H366.728a2.9,2.9,0,0,0,2.865-2.865Zm-240.9,77.317a7,7,0,0,0-2.717,9.52l12.862,23.137a7,7,0,0,0,12.236,0L173.5,120.648a7,7,0,1,0-12.237-6.8l-16.3,29.326-6.744-12.132A7,7,0,0,0,128.694,128.322Zm42.087,86.662a7,7,0,0,0-9.52,2.717l-16.3,29.325-6.744-12.132a7,7,0,0,0-12.237,6.8l12.862,23.137a7,7,0,0,0,12.236,0L173.5,224.5A7,7,0,0,0,170.781,214.984Zm38.559-54.8h60.229a7,7,0,0,0,0-14H209.34a7,7,0,1,0,0,14Zm92.084-45.547H209.34a7,7,0,1,0,0,14h92.084a7,7,0,0,0,0-14Z" transform="translate(-1094.661 2439.24)"/>
    <path id="XMLID_1151_2" data-name="XMLID_1151_" d="M269.568,250.041a7,7,0,0,1,0,14H209.34a7,7,0,0,1,0-14h60.228Zm38.856-24.547a7,7,0,0,0-7-7H209.34a7,7,0,0,0,0,14h92.084A7,7,0,0,0,308.424,225.494ZM157.206,65.186V34.173a7,7,0,0,1,7-7l25.4-.015a27.16,27.16,0,0,1,54.32,0v.015h25.393a7,7,0,0,1,7,7V65.186a7,7,0,0,1-7,7H164.206A7,7,0,0,1,157.206,65.186Zm14-7h91.107V41.173H236.92a7,7,0,0,1-7-7V27.158a13.16,13.16,0,0,0-26.32,0v7.015a7,7,0,0,1-7,7H171.2V58.186Zm212.387-7.181V416.656a16.883,16.883,0,0,1-16.865,16.865H66.793a16.883,16.883,0,0,1-16.864-16.865V51.005A16.883,16.883,0,0,1,66.793,34.14h67.815a7,7,0,0,1,0,14H95.517V385.8H338V48.14H298.912a7,7,0,0,1,0-14h67.815A16.884,16.884,0,0,1,383.593,51.005Zm-14,0a2.9,2.9,0,0,0-2.865-2.865H352V392.8a7,7,0,0,1-7,7H88.517a7,7,0,0,1-7-7V48.14H66.793a2.9,2.9,0,0,0-2.864,2.865V416.656a2.9,2.9,0,0,0,2.864,2.865H366.728a2.9,2.9,0,0,0,2.865-2.865Zm-240.9,77.317a7,7,0,0,0-2.717,9.52l12.862,23.137a7,7,0,0,0,12.236,0L173.5,120.648a7,7,0,1,0-12.237-6.8l-16.3,29.326-6.744-12.132A7,7,0,0,0,128.694,128.322Zm42.087,86.662a7,7,0,0,0-9.52,2.717l-16.3,29.325-6.744-12.132a7,7,0,0,0-12.237,6.8l12.862,23.137a7,7,0,0,0,12.236,0L173.5,224.5A7,7,0,0,0,170.781,214.984Zm38.559-54.8h60.229a7,7,0,0,0,0-14H209.34a7,7,0,1,0,0,14Zm92.084-45.547H209.34a7,7,0,1,0,0,14h92.084a7,7,0,0,0,0-14Z" transform="translate(-1094.661 2439.24)"/>
  </g>
</svg>
