<svg xmlns="http://www.w3.org/2000/svg" width="384.972" height="384.969" viewBox="0 0 384.972 384.969">
  <g id="logout-svgrepo-com" transform="translate(0 -0.001)">
    <g id="Sign_Out">
      <path id="Path_44" data-name="Path 44" d="M180.455,360.91H24.061V24.061H180.455a12.03,12.03,0,0,0,0-24.06H12.03A12.034,12.034,0,0,0,0,12.031V372.94a12.034,12.034,0,0,0,12.03,12.03H180.454a12.03,12.03,0,0,0,0-24.06Z"/>
      <path id="Path_45" data-name="Path 45" d="M381.481,184.088l-83.009-84.2a11.942,11.942,0,0,0-17.011,0,12.22,12.22,0,0,0,0,17.179l62.558,63.46H96.279a12.152,12.152,0,0,0,0,24.3h247.74l-62.558,63.46a12.22,12.22,0,0,0,0,17.179,11.931,11.931,0,0,0,17.011,0l83-84.2A12.3,12.3,0,0,0,381.481,184.088Z"/>
    </g>
  </g>
</svg>
